<svg>
          <g>
            <path d="M23.96,7.77c.04-.63-.17-1.23-.62-1.71-.46-.49-1.1-.78-1.76-.78h-4.28c.44-.56,.69-1.27,.69-1.97,0-1.83-1.49-3.32-3.32-3.32-1.18,0-2.26,.62-2.86,1.6-.59-.62-1.41-1-2.17-1-1.66,0-3.07,1.4-3.07,3.07,0,.69,.25,1.27,.53,1.71H2.47c-1.34,0-2.47,1.13-2.47,2.47v1.62c0,1.19,.86,2.23,1.96,2.44v10.53c0,1.66,1.4,3.07,3.07,3.07h13.91c1.66,0,3.06-1.4,3.06-3.07V11.9c1.13-.2,1.96-1.21,1.96-2.44v-1.69ZM14.58,1.35c1.1,0,1.97,.86,1.97,1.97s-.92,1.97-1.97,1.97h-1.97v-1.97c0-1.1,.86-1.97,1.97-1.97Zm8.11,6.4v1.62c0,.63-.49,1.12-1.12,1.12H12.7v-3.85h8.88c.62,0,1.12,.49,1.12,1.11Zm-1.96,4v10.59c0,.98-.74,1.71-1.71,1.71h-6.32V11.76h8.03Zm-9.38,.09v12.3H5.03c-.94,0-1.71-.81-1.71-1.8V11.85H11.35Zm0-5.2v3.85H2.47c-.62,0-1.11-.49-1.11-1.12v-1.62c0-.62,.49-1.11,1.11-1.11H11.35Zm-1.71-4.78c.98,0,1.71,.74,1.71,1.71v1.71h-1.71c-.98,0-1.71-.74-1.71-1.71s.74-1.71,1.71-1.71Z"></path>
          </g>
        </svg>